<?xml version="1.0" standalone="no"?>
<!DOCTYPE svg PUBLIC "-//W3C//DTD SVG 20010904//EN"
 "http://www.w3.org/TR/2001/REC-SVG-20010904/DTD/svg10.dtd">
<svg version="1.0" xmlns="http://www.w3.org/2000/svg"
 width="512.000000pt" height="512.000000pt" viewBox="0 0 512.000000 512.000000"
 preserveAspectRatio="xMidYMid meet">
<metadata>
Created by potrace 1.15, written by Peter Selinger 2001-2017
</metadata>
<g transform="translate(0.000000,512.000000) scale(0.100000,-0.100000)"
fill="#000000" stroke="none">
<path d="M1322 4383 c-5 -16 -162 -435 -347 -933 -186 -498 -342 -917 -347
-932 l-10 -28 -275 0 c-164 0 -273 -4 -271 -9 1 -5 87 -106 190 -225 l188
-215 -216 -513 c-119 -282 -217 -518 -217 -523 0 -6 69 -109 153 -230 114
-162 156 -215 163 -204 5 8 141 340 302 739 l293 725 603 0 603 0 107 -270
c58 -148 150 -382 203 -518 54 -136 102 -247 107 -245 7 3 311 356 324 378 2
4 -267 686 -598 1516 l-602 1509 -172 3 -171 2 -10 -27z m432 -1293 l233 -595
-455 -3 c-250 -1 -457 -1 -458 1 -3 2 397 1154 422 1217 8 20 -12 68 258 -620z"/>
<path d="M3120 2704 l1 -1709 27 32 c15 17 117 131 227 253 l200 221 5 646 5
646 147 -185 146 -184 79 8 c352 36 688 188 903 407 106 108 162 197 206 326
24 70 28 95 28 200 -1 147 -19 227 -78 350 -147 300 -445 513 -880 625 -204
53 -292 62 -668 67 l-348 5 0 -1708z m723 1231 c299 -39 509 -127 657 -275 97
-97 132 -165 138 -273 5 -91 -10 -141 -67 -217 -147 -195 -486 -322 -913 -343
l-78 -4 0 564 0 563 74 0 c41 0 126 -7 189 -15z"/>
</g>
</svg>
